<svg width="15" height="13" viewBox="0 0 15 13" fill="none" xmlns="http://www.w3.org/2000/svg">
<path d="M0.564014 2.51085C0.742174 2.32663 0.956223 2.18092 1.19293 2.08271C1.42964 1.9845 1.68398 1.93588 1.94022 1.93987H3.63852L4.0265 0.915033C4.14639 0.660003 4.33054 0.440533 4.56087 0.27817C4.78569 0.109577 5.0561 0.0126397 5.33682 0H9.22388C9.50805 0.006308 9.78265 0.103832 10.0071 0.27817C10.2355 0.440731 10.4172 0.660319 10.5342 0.915033L10.9588 1.93987H12.6937C12.9494 1.93987 13.2026 1.99023 13.4388 2.08809C13.6751 2.18595 13.8897 2.32937 14.0706 2.51019C14.2514 2.691 14.3948 2.90566 14.4926 3.1419C14.5905 3.37814 14.6409 3.63135 14.6409 3.88706V10.7169C14.6409 10.9722 14.5905 11.2251 14.4925 11.4609C14.3946 11.6967 14.251 11.9109 14.0701 12.0912C13.8892 12.2714 13.6745 12.4141 13.4383 12.5112C13.2021 12.6082 12.949 12.6577 12.6937 12.6567H1.94022C1.68493 12.6587 1.4318 12.6098 1.19557 12.513C0.959332 12.4162 0.744707 12.2734 0.564184 12.0929C0.383661 11.9124 0.240846 11.6978 0.144049 11.4615C0.0472507 11.2253 -0.00159359 10.9722 0.000354767 10.7169V3.88706C-0.00501251 3.63129 0.0422516 3.37714 0.139215 3.1404C0.236178 2.90366 0.380771 2.68937 0.564014 2.51085ZM7.32061 10.3948C7.95765 10.3948 8.58038 10.2059 9.11005 9.85195C9.63973 9.49803 10.0526 8.99499 10.2963 8.40645C10.5401 7.8179 10.6039 7.17028 10.4796 6.54549C10.3554 5.92069 10.0486 5.34678 9.59814 4.89633C9.14769 4.44587 8.57378 4.13911 7.94898 4.01483C7.32418 3.89055 6.67657 3.95433 6.08802 4.19812C5.49948 4.4419 4.99644 4.85473 4.64252 5.38441C4.2886 5.91409 4.0997 6.53682 4.0997 7.17386C4.10163 8.0275 4.4416 8.84563 5.04522 9.44925C5.64884 10.0529 6.46697 10.3928 7.32061 10.3948Z" fill="#ffffff"/>
<path d="M7.32051 5.05675C7.74793 5.05676 8.16573 5.18359 8.52101 5.42121C8.87629 5.65882 9.15307 5.99652 9.3163 6.39153C9.47953 6.78655 9.52187 7.22113 9.43795 7.64022C9.35403 8.05932 9.14763 8.44408 8.84489 8.7458C8.54215 9.04751 8.15668 9.2526 7.7373 9.3351C7.31792 9.41759 6.88349 9.37378 6.48903 9.20922C6.09457 9.04465 5.75781 8.76672 5.52141 8.41064C5.285 8.05455 5.15959 7.63632 5.16103 7.20891C5.15908 6.92512 5.21365 6.64378 5.32157 6.38131C5.42949 6.11883 5.5886 5.88047 5.78962 5.68014C5.99063 5.47981 6.22953 5.32151 6.49237 5.21448C6.75521 5.10745 7.03673 5.05383 7.32051 5.05675Z" fill="#ED1E26"/>
</svg>
