<svg width="116" height="80" viewBox="0 0 116 80" fill="none" xmlns="http://www.w3.org/2000/svg">
    <path
        d="M57.2223 74.4961C80.2342 74.4961 98.889 72.5295 98.889 70.1035C98.889 67.6776 80.2342 65.7109 57.2223 65.7109C34.2105 65.7109 15.5557 67.6776 15.5557 70.1035C15.5557 72.5295 34.2105 74.4961 57.2223 74.4961Z"
        fill="url(#paint0_linear_2_19657)" fill-opacity="0.44" />
    <path
        d="M66.6775 6.07812H35.6071C34.3511 6.07812 33.333 7.09626 33.333 8.3522V52.9152C33.333 54.1711 34.3511 55.1892 35.6071 55.1892H66.6775C67.9334 55.1892 68.9515 54.1711 68.9515 52.9152V8.3522C68.9515 7.09626 67.9334 6.07812 66.6775 6.07812Z"
        fill="url(#paint1_linear_2_19657)" />
    <path
        d="M67.3369 4.59375H35.5628C34.5012 4.59375 33.6406 5.45436 33.6406 6.51597V51.7826C33.6406 52.8443 34.5012 53.7049 35.5628 53.7049H67.3369C68.3985 53.7049 69.2591 52.8443 69.2591 51.7826V6.51597C69.2591 5.45436 68.3985 4.59375 67.3369 4.59375Z"
        fill="url(#paint2_linear_2_19657)" />
    <path
        d="M66.0116 5.8125H36.8856C35.9181 5.8125 35.1338 6.59683 35.1338 7.56435V50.7273C35.1338 51.6948 35.9181 52.4792 36.8856 52.4792H66.0116C66.9791 52.4792 67.7634 51.6948 67.7634 50.7273V7.56435C67.7634 6.59683 66.9791 5.8125 66.0116 5.8125Z"
        fill="white" />
    <path
        d="M71.4929 10.8906H40.4225C39.1666 10.8906 38.1484 11.9088 38.1484 13.1647V57.7277C38.1484 58.9836 39.1666 60.0017 40.4225 60.0017H71.4929C72.7488 60.0017 73.767 58.9836 73.767 57.7277V13.1647C73.767 11.9088 72.7488 10.8906 71.4929 10.8906Z"
        fill="url(#paint3_linear_2_19657)" />
    <path
        d="M72.1524 9.40625H40.3783C39.3167 9.40625 38.4561 10.2669 38.4561 11.3285V56.5951C38.4561 57.6567 39.3167 58.5174 40.3783 58.5174H72.1524C73.214 58.5174 74.0746 57.6567 74.0746 56.5951V11.3285C74.0746 10.2669 73.214 9.40625 72.1524 9.40625Z"
        fill="url(#paint4_linear_2_19657)" />
    <path
        d="M70.1375 10H41.0116C40.0441 10 39.2598 10.7843 39.2598 11.7519V54.9148C39.2598 55.8823 40.0441 56.6667 41.0116 56.6667H70.1375C71.1051 56.6667 71.8894 55.8823 71.8894 54.9148V11.7519C71.8894 10.7843 71.1051 10 70.1375 10Z"
        fill="white" />
    <path d="M46.667 44.4471L50.6176 38.447L58.3337 40.0026L65.5559 33.3359L70.0003 36.1137"
        stroke="url(#paint5_linear_2_19657)" stroke-width="1.5" />
    <path
        d="M48.1561 16.7109H42.6783C42.3981 16.7109 42.1709 16.9381 42.1709 17.2183V17.8072C42.1709 18.0875 42.3981 18.3146 42.6783 18.3146H48.1561C48.4363 18.3146 48.6635 18.0875 48.6635 17.8072V17.2183C48.6635 16.9381 48.4363 16.7109 48.1561 16.7109Z"
        fill="#E68875" />
    <path
        d="M53.5672 21.2031H42.6783C42.3981 21.2031 42.1709 21.4303 42.1709 21.7105V22.2994C42.1709 22.5797 42.3981 22.8068 42.6783 22.8068H53.5672C53.8474 22.8068 54.0746 22.5797 54.0746 22.2994V21.7105C54.0746 21.4303 53.8474 21.2031 53.5672 21.2031Z"
        fill="#E68875" />
    <path
        d="M53.5672 25.7031H42.6783C42.3981 25.7031 42.1709 25.9303 42.1709 26.2105V26.7994C42.1709 27.0797 42.3981 27.3068 42.6783 27.3068H53.5672C53.8474 27.3068 54.0746 27.0797 54.0746 26.7994V26.2105C54.0746 25.9303 53.8474 25.7031 53.5672 25.7031Z"
        fill="#E68875" />
    <path
        d="M69.593 46.7572H43.7412V33.5202C43.7402 33.3715 43.6805 33.2293 43.575 33.1245C43.4695 33.0197 43.3269 32.9609 43.1782 32.9609H42.6931C42.545 32.9619 42.4033 33.0211 42.2987 33.1258C42.194 33.2305 42.1348 33.3722 42.1338 33.5202V47.035C42.1343 47.154 42.1733 47.2696 42.2449 47.3646C42.2285 47.4225 42.2198 47.4823 42.219 47.5424V47.5943C42.219 47.6962 42.2391 47.7972 42.2783 47.8914C42.3174 47.9855 42.3747 48.071 42.447 48.1429C42.5193 48.2149 42.605 48.2718 42.6994 48.3105C42.7937 48.3492 42.8948 48.3688 42.9968 48.3683H69.593C69.695 48.3688 69.7961 48.3492 69.8904 48.3105C69.9847 48.2718 70.0705 48.2149 70.1428 48.1429C70.2151 48.071 70.2724 47.9855 70.3115 47.8914C70.3507 47.7972 70.3708 47.6962 70.3708 47.5943V47.5424C70.3718 47.4397 70.3524 47.3377 70.3137 47.2425C70.2751 47.1473 70.218 47.0607 70.1456 46.9877C70.0733 46.9146 69.9873 46.8567 69.8924 46.8171C69.7976 46.7776 69.6958 46.7572 69.593 46.7572Z"
        fill="url(#paint6_linear_2_19657)" />
    <path
        d="M63.6628 16.6641C62.426 16.6633 61.2167 17.0295 60.188 17.7161C59.1594 18.4028 58.3575 19.3792 57.8838 20.5217C57.4102 21.6643 57.2861 22.9216 57.5272 24.1347C57.7683 25.3478 58.3638 26.4621 59.2384 27.3366C60.1129 28.2112 61.2272 28.8067 62.4403 29.0478C63.6534 29.2889 64.9107 29.1648 66.0533 28.6912C67.1958 28.2175 68.1722 27.4156 68.8588 26.3869C69.5455 25.3583 69.9117 24.149 69.9109 22.9122H63.6628V16.6641Z"
        fill="url(#paint7_linear_2_19657)" />
    <path
        d="M64.4893 15.9297V22.1815H70.7411C70.7411 20.5234 70.0824 18.9333 68.91 17.7608C67.7375 16.5884 66.1473 15.9297 64.4893 15.9297Z"
        fill="url(#paint8_linear_2_19657)" />
    <path
        d="M76.6661 51.3828C76.7217 51.6532 76.6661 52.8643 76.6661 53.605C76.6661 54.4347 74.4735 54.5976 73.7032 55.0865C72.818 55.6458 72.0328 57.1606 71.481 58.0495C70.9847 58.8532 70.1698 61.2013 70.3698 62.1236C70.5365 62.9013 72.5921 64.7161 72.5921 64.7161L78.518 68.0495L84.0735 64.7161C84.0735 64.7161 86.0624 63.3161 86.2958 62.4939C86.6291 61.3236 85.9254 58.7902 85.555 58.0495C84.8143 56.568 82.9624 54.3458 82.9624 54.3458C82.9624 54.3458 79.6291 54.4569 79.6291 53.605V51.3828"
        fill="#FAD3C3" />
    <path
        d="M75.9258 49.7775C75.9258 49.7775 76.0369 51.6293 76.6184 52.1997C76.8702 52.4516 77.648 53.2405 78.0036 53.2405C79.0443 53.2405 79.3739 52.6108 79.7369 52.1997C80.1665 51.7241 80.4121 51.1107 80.4295 50.4701C80.4295 49.859 80.7739 47.6997 80.7739 47.6997L77.311 47.3516L75.9258 48.0553V49.7775Z"
        fill="#FAD3C3" />
    <path
        d="M80.7741 47.6815C80.8282 48.0251 80.8282 48.375 80.7741 48.7186C80.6704 49.4815 80.4296 50.4519 80.4296 50.4519C80.4296 50.4519 80.1222 48.5667 79.737 48.3741C79.2222 48.1186 79.3889 48.7186 78.6963 48.7186C77.8807 48.6717 77.0704 48.5565 76.2741 48.3741C76 48.3741 75.9259 48.7445 75.9259 49.0667L76.1111 51.1108C76.1111 51.1108 75.0001 49.7391 75 48.7037C74.9999 47.5 75.5778 46.9889 75.9259 46.6408C76.2741 46.2926 77.1522 46.0009 77.9999 46C78.8504 45.9991 79.4062 46.1236 80.0815 46.6408C80.2804 46.7931 80.4094 46.8724 80.5483 47.081C80.6871 47.2896 80.7455 47.4668 80.7741 47.6815Z"
        fill="#383838" />
    <path
        d="M76.6662 53.6094C76.6662 53.6094 74.2884 54.076 73.7032 54.3501C72.3921 54.9649 70.7402 58.0538 70.7402 58.0538L73.7032 59.1649C73.4099 59.8894 73.1625 60.6316 72.9625 61.3872C72.8217 62.2649 72.981 64.939 72.981 64.939L78.518 67.6834L83.3328 66.202L84.4439 63.6094C84.3748 62.7383 84.2511 61.8724 84.0736 61.0168C83.8584 60.5077 83.6109 60.0129 83.3328 59.5353C83.3328 59.5353 84.1328 58.9686 84.4439 58.7946C84.8143 58.5872 85.9254 58.0538 85.9254 58.0538C85.9254 58.0538 84.0069 54.9723 82.9625 54.3501C82.1625 53.8723 79.6291 53.6094 79.6291 53.6094C79.6291 53.6094 79.9995 55.8316 78.1476 55.8316C76.2958 55.8316 76.6662 53.6094 76.6662 53.6094Z"
        fill="#E68875" />
    <path
        d="M72.2224 61.4786V67.2193C72.2162 67.2741 72.2209 67.3295 72.2362 67.3824C72.2514 67.4353 72.277 67.4847 72.3114 67.5277C72.3458 67.5707 72.3884 67.6065 72.4367 67.633C72.485 67.6596 72.538 67.6763 72.5927 67.6823H84.4446C84.4994 67.6763 84.5524 67.6596 84.6007 67.633C84.6489 67.6065 84.6915 67.5707 84.7259 67.5277C84.7603 67.4847 84.7859 67.4353 84.8012 67.3824C84.8165 67.3295 84.8212 67.2741 84.815 67.2193V61.4786C84.8212 61.4239 84.8165 61.3684 84.8012 61.3155C84.7859 61.2626 84.7603 61.2132 84.7259 61.1702C84.6915 61.1272 84.6489 61.0914 84.6007 61.0649C84.5524 61.0384 84.4994 61.0216 84.4446 61.0156H72.5927C72.538 61.0216 72.485 61.0384 72.4367 61.0649C72.3884 61.0914 72.3458 61.1272 72.3114 61.1702C72.277 61.2132 72.2514 61.2626 72.2362 61.3155C72.2209 61.3684 72.2162 61.4239 72.2224 61.4786Z"
        fill="#F8F8F8" />
    <path
        d="M72.9627 71.3869C72.9627 71.3869 85.7627 69.5721 89.6294 67.4092C90.1664 67.1092 91.7071 66.1832 91.1108 64.761C90.3701 62.9906 88.5183 63.7573 87.7775 63.8758C83.7442 64.5129 72.459 69.061 72.459 69.061L72.9627 71.3869Z"
        fill="#E68875" />
    <path
        d="M65.9258 65.276C65.9258 66.5279 68.1665 67.8242 69.2591 68.1464C72.7887 69.1834 84.0739 71.0167 84.0739 71.0167L84.4443 69.376C84.4443 69.376 73.5073 64.0205 69.6295 63.6353C68.6369 63.539 65.9258 63.6353 65.9258 65.276Z"
        fill="#E68875" />
    <path
        d="M67.0371 70.3858C67.0371 69.7117 67.7445 69.5154 68.0816 69.3747C69.0964 68.9599 72.489 69.2858 72.489 69.2858L72.963 71.0562C72.963 71.0562 69.2593 71.6932 68.0816 71.3932C67.726 71.3043 67.0371 71.0562 67.0371 70.3858Z"
        fill="#383838" />
    <path
        d="M84.4113 69.3813C84.4113 69.3813 87.8001 68.8925 88.7742 69.3813C89.4483 69.7147 89.7853 70.0295 89.7853 70.3888C89.8028 70.6067 89.7455 70.824 89.623 71.0051C89.5005 71.1862 89.32 71.3202 89.1113 71.3851C87.9113 71.7999 84.0742 70.711 84.0742 70.711L84.4113 69.3813Z"
        fill="#383838" />
    <path opacity="0.54"
        d="M78.3329 64.7205C78.6397 64.7205 78.8885 64.4718 78.8885 64.1649C78.8885 63.8581 78.6397 63.6094 78.3329 63.6094C78.0261 63.6094 77.7773 63.8581 77.7773 64.1649C77.7773 64.4718 78.0261 64.7205 78.3329 64.7205Z"
        fill="#E68875" />
    <defs>
        <linearGradient id="paint0_linear_2_19657" x1="11834.7" y1="844.957" x2="19848.9" y2="844.957"
            gradientUnits="userSpaceOnUse">
            <stop stop-color="#F3F3F3" />
            <stop offset="1" stop-color="#F4F4F4" />
        </linearGradient>
        <linearGradient id="paint1_linear_2_19657" x1="33.333" y1="30.6337" x2="68.9515" y2="30.6337"
            gradientUnits="userSpaceOnUse">
            <stop stop-color="#EEEEEE" />
            <stop offset="0.03" stop-color="#E9E9E9" />
            <stop offset="1" stop-color="#D8D8D8" />
        </linearGradient>
        <linearGradient id="paint2_linear_2_19657" x1="33.6406" y1="29.1493" x2="69.2591" y2="29.1493"
            gradientUnits="userSpaceOnUse">
            <stop stop-color="#F3F3F3" />
            <stop offset="1" stop-color="#F4F4F4" />
        </linearGradient>
        <linearGradient id="paint3_linear_2_19657" x1="5060.36" y1="4563.49" x2="8485.79" y2="4563.49"
            gradientUnits="userSpaceOnUse">
            <stop stop-color="#EEEEEE" />
            <stop offset="0.03" stop-color="#DDDDDD" />
            <stop offset="1" stop-color="#D8D8D8" />
        </linearGradient>
        <linearGradient id="paint4_linear_2_19657" x1="5090.23" y1="4365.56" x2="8515.66" y2="4365.56"
            gradientUnits="userSpaceOnUse">
            <stop stop-color="#F3F3F3" />
            <stop offset="1" stop-color="#F4F4F4" />
        </linearGradient>
        <linearGradient id="paint5_linear_2_19657" x1="61.489" y1="38.8888" x2="45.9937" y2="38.8888"
            gradientUnits="userSpaceOnUse">
            <stop stop-color="#DEDEDE" />
            <stop offset="0.37" stop-color="#E2E2E2" />
            <stop offset="0.71" stop-color="#EDEDED" />
            <stop offset="1" stop-color="#FDFDFD" />
        </linearGradient>
        <linearGradient id="paint6_linear_2_19657" x1="60.0708" y1="40.6609" x2="41.319" y2="40.6609"
            gradientUnits="userSpaceOnUse">
            <stop stop-color="#DEDEDE" />
            <stop offset="0.37" stop-color="#E2E2E2" />
            <stop offset="0.71" stop-color="#EDEDED" />
            <stop offset="1" stop-color="#FDFDFD" />
        </linearGradient>
        <linearGradient id="paint7_linear_2_19657" x1="69.9109" y1="22.9159" x2="57.4109" y2="22.9122"
            gradientUnits="userSpaceOnUse">
            <stop stop-color="#DEDEDE" />
            <stop offset="1" stop-color="#FDFDFD" />
        </linearGradient>
        <linearGradient id="paint8_linear_2_19657" x1="70.7411" y1="19.0556" x2="64.4911" y2="19.0538"
            gradientUnits="userSpaceOnUse">
            <stop stop-color="#DEDEDE" />
            <stop offset="1" stop-color="#FDFDFD" />
        </linearGradient>
    </defs>
</svg>