<svg width="200" height="200" viewBox="0 0 200 200" fill="none" xmlns="http://www.w3.org/2000/svg">
<g clip-path="url(#clip0_1274_8224)">
<path d="M200.049 146.886V53.1135L118.779 99.9999L200.049 146.886ZM190.672 36.8595C188.171 35.2966 185.045 34.3589 181.607 34.3589H18.1294C15.0037 34.3589 11.8779 35.2966 9.06471 36.8595L100.024 89.0597L190.672 36.8595ZM9.06471 163.14C11.8779 164.703 15.0037 165.641 18.1294 165.641H181.919C185.045 165.641 188.171 164.703 190.984 163.453L100.024 110.94L9.06471 163.14ZM0 53.1135V146.886L81.2698 99.9999L0 53.1135Z" fill="#00237A"/>
<path d="M84.3956 98.1243L0.312576 49.675C0 50.3002 0 51.2379 0 52.1756V53.1133L81.2698 99.9998L84.3956 98.1243ZM115.653 101.875L199.736 150.637C199.736 149.699 200.049 149.074 200.049 148.137V146.886L118.779 99.9998L115.653 101.875ZM197.861 156.576L109.402 105.314L100.024 110.627L190.984 163.14C193.797 161.577 196.298 159.389 197.861 156.576ZM2.18803 43.4235L90.6471 94.686L100.024 89.3722L9.06471 36.8594C6.25153 38.4223 4.06349 40.6103 2.18803 43.4235Z" fill="white"/>
<path d="M2.18796 43.4236C1.25023 45.299 0.625076 47.4871 0.3125 49.6751L84.3955 98.1244L90.6471 94.3735L2.18796 43.4236ZM109.402 105.314L197.861 156.264C198.798 154.388 199.424 152.513 199.736 150.325L115.653 101.875L109.402 105.314Z" fill="#CF142B"/>
<path d="M96.8987 109.065L6.25153 161.265L9.06471 163.14L100.024 110.94L96.8987 109.065ZM2.18803 156.576L90.6471 105.314L81.2698 99.9998L0 146.886V147.824C0 150.95 0.937729 153.763 2.18803 156.576ZM103.15 90.9351L193.797 38.7348L190.984 36.8594L100.024 89.0596L103.15 90.9351ZM197.861 43.7361L109.402 94.686L118.779 99.9998L200.049 53.1133V52.1756C200.049 49.0499 199.111 46.2367 197.861 43.7361Z" fill="white"/>
<path d="M2.18799 156.576C3.12572 158.452 4.6886 160.015 6.25148 161.578L96.8986 109.377L90.6471 105.626L2.18799 156.576ZM100.024 100L96.8986 105.314L93.7729 103.751L90.6471 105.314L96.8986 109.065L103.15 105.314L100.024 100Z" fill="#CF142B"/>
<path d="M96.8987 105.314L100.024 99.9998L93.7729 103.751L96.8987 105.314ZM197.861 43.7361C196.923 41.8606 195.36 40.2977 193.797 38.7349L103.15 90.9351L109.402 94.686L197.861 43.7361Z" fill="#CF142B"/>
<path d="M100.024 100L103.15 94.6862L106.276 96.2491L109.401 94.6862L103.15 90.9353L96.8984 94.6862L100.024 100Z" fill="#CF142B"/>
<path d="M100.024 99.9998L106.276 96.2489L103.15 94.686L100.024 99.9998Z" fill="#CF142B"/>
<path d="M200.049 84.3711H115.653V34.3589H84.3956V84.3711H0V115.629H84.3956V165.641H115.653V115.629H200.049V84.3711Z" fill="white"/>
<path d="M200.049 90.6226H109.402V34.3589H90.6471V90.6226H0V109.377H90.6471V165.641H109.402V109.377H200.049V90.6226Z" fill="#CF142B"/>
</g>
<defs>
<clipPath id="clip0_1274_8224">
<rect width="200" height="200" fill="white"/>
</clipPath>
</defs>
</svg>
