<svg width="24" height="16" viewBox="0 0 24 16" fill="none" xmlns="http://www.w3.org/2000/svg">
    <path d="M24.0005 0H0V15.36H24.0005V0Z" fill="#000066" />
    <path
        d="M0 0V1.71729L21.3172 15.36H24.0005V13.6428L2.68325 5.11998e-05L0 0ZM24.0005 0V1.71724L2.68325 15.3599H0V13.6427L21.3172 0H24.0005Z"
        fill="white" />
    <path d="M10.0002 0V15.36H14.0003V0H10.0002ZM0 5.11998V10.24H24.0005V5.11998H0Z" fill="white" />
    <path d="M0 6.14398V9.21597H24.0005V6.14398H0ZM10.8002 0V15.36H13.2003V0H10.8002Z" fill="#CC0000" />
    <path
        d="M0 15.36L8.00016 10.24H9.789L1.78884 15.36H0ZM0 0L8.00016 5.11998H6.21132L0 1.14488L0 0ZM14.2115 5.11998L22.2116 0H24.0005L16.0003 5.11998H14.2115ZM24.0005 15.36L16.0003 10.24H17.7892L24.0005 14.2151V15.36Z"
        fill="#CC0000" />
</svg>