<svg width="200" height="200" viewBox="0 0 200 200" fill="none" xmlns="http://www.w3.org/2000/svg">
<g clip-path="url(#clip0_444_1272)">
<path d="M18.1294 34.359H181.607C191.922 34.359 200.049 42.4859 200.049 52.1758V147.824C200.049 157.827 191.922 165.641 181.919 165.641H18.1294C8.12699 165.641 0 157.514 0 147.824V52.1758C0 42.4859 8.12699 34.359 18.1294 34.359Z" fill="#000099"/>
<path d="M0 147.824C0 157.514 8.12699 165.641 18.1294 165.641H181.919C191.922 165.641 200.049 157.827 200.049 147.824V126.569H0V147.824Z" fill="#000099"/>
<path d="M0 59.6776H200.049V140.635H0V59.6776Z" fill="#CC0000"/>
<path d="M100.025 77.1819C99.3995 77.1819 99.3995 78.4323 99.3995 78.4323H100.65C100.65 78.4323 100.65 77.1819 100.025 77.1819ZM133.783 119.38V115.941H122.843H131.907V113.128H130.032V110.94H122.53H128.782V109.377H127.219L125.968 108.127V102.501C126.281 101.875 126.906 101.25 127.219 100.938V95.6239C126.594 95.6239 126.281 96.5617 126.281 96.5617V94.3736C125.968 94.0611 125.968 94.3736 125.656 94.3736V98.7497V95.6239H125.031H125.968V94.6862H125.031V92.1856C124.718 92.1856 124.718 93.4359 123.78 93.4359C123.468 93.4359 123.468 92.8108 123.78 92.4982C124.093 92.1856 124.093 91.5605 123.78 90.6227C123.468 91.2479 122.843 91.5605 123.155 91.2479C123.468 90.6227 123.78 90.3102 123.468 89.3724C123.468 90.3102 122.843 90.3102 122.843 89.685C123.155 89.0598 123.468 88.7473 122.843 87.8095C122.53 88.7473 122.218 88.7473 122.218 88.1221C122.218 87.1844 122.218 86.2467 120.967 85.9341C120.967 85.9341 120.967 84.9964 120.342 84.9964C120.03 84.9964 119.717 85.9341 119.717 85.9341C118.467 86.2467 118.467 87.1844 118.467 88.1221C118.467 88.7473 118.154 88.7473 117.841 87.8095C117.529 88.7473 117.841 89.0598 117.841 89.685C117.841 90.3102 117.529 90.3102 117.216 89.3724C116.904 90.6227 117.216 90.6227 117.529 91.2479C117.529 91.5605 116.904 91.5605 116.904 90.6227C116.591 91.5605 116.904 91.873 116.904 92.4982C117.216 92.8108 117.216 93.4359 116.904 93.4359C116.279 93.4359 115.966 92.1856 115.653 92.1856V96.5617H114.716V96.2491H114.091V96.5617H107.214V92.4982C106.589 92.8108 106.589 93.4359 106.589 93.4359V96.5617V94.0611H105.964C105.964 94.0611 105.651 94.0611 105.651 93.4359C105.651 92.8108 105.964 92.1856 106.276 92.1856V90.9353C106.276 90.9353 105.026 91.2479 105.026 92.4982V91.2479C104.713 91.2479 104.401 91.873 104.401 93.1233H104.088V91.5605C104.088 90.9353 104.713 90.6227 104.713 90.3102V89.0598C104.401 90.3102 103.776 89.9976 103.776 89.3724C103.776 89.0598 104.088 88.7473 104.713 87.497C105.026 87.1844 104.713 86.2467 104.401 85.9341C104.401 86.8718 104.088 87.1844 103.776 87.1844C103.463 87.1844 103.463 87.1844 103.463 86.5592C103.463 85.9341 103.776 85.6215 104.088 85.3089C104.401 84.6838 104.088 84.0586 103.776 83.7461C103.776 84.6838 103.776 84.9964 103.15 84.9964C102.525 84.6838 103.15 83.746 103.463 83.4335C103.463 82.8083 103.15 82.4957 103.15 82.4957C102.838 83.1209 102.838 83.4335 102.525 83.1209C102.213 83.1209 102.213 82.4957 102.525 82.1832C102.838 81.8706 102.838 81.558 102.525 81.2454C102.213 81.8706 101.9 81.8706 101.9 81.2454L102.213 79.9951H97.524L97.8366 81.2454C97.8366 81.558 97.524 81.558 97.2114 80.9329C96.8989 81.2454 96.8989 81.558 97.2114 81.8706C97.524 82.1832 97.524 82.8083 97.2114 82.8083C96.8989 82.8083 96.8989 82.8083 96.5863 82.1832C96.5863 82.1832 96.2737 82.8083 96.2737 83.1209C96.5863 83.4335 97.2114 84.3712 96.5863 84.6838C96.2737 84.6838 96.2737 84.3712 95.9611 83.4335C95.6486 83.746 95.336 84.3712 95.6486 84.9964C95.9611 85.6215 96.2737 85.6215 96.2737 86.2467C96.2737 86.5592 95.9611 86.8718 95.9611 86.8718C95.6486 86.8718 95.336 86.5592 95.336 85.6215C95.0234 85.9341 95.0234 86.8718 95.0234 87.1844C95.6486 88.1221 95.9611 88.4347 95.9611 89.0598C95.9611 89.3724 95.336 89.685 95.0234 88.7473C94.7108 89.0598 95.0234 89.9976 95.0234 89.9976C95.0234 90.6227 95.6486 90.6227 95.6486 91.2479V92.8108H95.336C95.336 91.5605 95.336 90.9353 94.7108 90.9353V92.1856C94.7108 90.6227 93.4605 90.6227 93.4605 90.6227V91.873C94.0857 91.873 94.0857 92.1856 94.0857 93.1233C94.0857 94.0611 93.7731 93.7485 93.7731 93.7485H92.8354V96.2491V93.1233C92.8354 93.1233 92.8354 92.4982 92.2102 92.1856V96.2491H85.3335V95.9365H84.7084V96.2491H83.4581V91.873C83.1455 91.873 83.1455 93.1233 82.2078 93.1233C81.8952 93.1233 81.8952 92.4982 82.2078 92.1856C82.5204 91.873 82.5204 91.2479 82.2078 90.3102C81.8952 90.9353 81.27 91.2479 81.5826 90.9353C81.8952 90.3102 82.2078 89.9976 81.8952 89.0598C81.8952 89.9976 81.2701 89.9976 81.2701 89.3724C81.5826 88.7473 81.8952 88.4347 81.2701 87.497C80.9575 88.4347 80.6449 88.4347 80.6449 87.8095C80.6449 86.8718 80.6449 85.9341 79.3946 85.6215C79.3946 85.6215 79.3946 84.6838 78.7694 84.6838C78.4569 84.6838 78.1443 85.6215 78.1443 85.6215C76.894 85.9341 76.894 86.8718 76.894 87.8095C76.894 88.4347 76.5814 88.4347 76.2688 87.497C75.9563 88.4347 76.2688 88.7473 76.2688 89.3724C76.2688 89.9976 75.9563 89.9976 75.6437 89.0598C75.3311 90.3102 75.6437 90.3102 75.9563 90.9353C75.9563 91.2479 75.3311 91.2479 75.3311 90.3102C75.0185 91.2479 75.3311 91.5605 75.3311 92.1856C75.6437 92.4982 75.6437 93.1233 75.3311 93.1233C74.7059 93.1233 74.3934 91.873 74.0808 91.873V94.3736H73.1431V93.7485H72.5179V95.9365C72.5179 95.9365 72.2053 94.9988 71.5802 94.9988V100.313C71.8928 100.313 72.5179 100.938 72.8305 101.875V107.502C72.5179 108.127 72.2053 108.752 71.5802 108.752H70.0173V110.315H76.2688H68.767V112.503H66.8915V115.316H75.9563H65.0161V118.755H63.1406V122.193H134.095V118.755H133.783V119.38Z" fill="white"/>
<path d="M102.212 80.6203V79.6825H97.8364V80.6203H102.212ZM101.9 79.6825V79.0574H98.149V79.6825H101.9ZM101.275 79.0574V78.4322H98.7742V79.0574H101.275Z" fill="white"/>
</g>
<defs>
<clipPath id="clip0_444_1272">
<rect width="200" height="200" fill="white"/>
</clipPath>
</defs>
</svg>
