<svg xmlns="http://www.w3.org/2000/svg" version="1.1" xmlns:xlink="http://www.w3.org/1999/xlink"
    xmlns:svgjs="http://svgjs.com/svgjs" width="512" height="512" x="0" y="0" viewBox="0 0 512 512"
    style="enable-background:new 0 0 512 512" xml:space="preserve" class="">
    <g>
        <path fill="#ffaa00"
            d="M362.94 102.43 126.43 338.94A168 168 0 0 1 239.22 64.83q8.28-.825 16.78-.83t16.78.83a167.212 167.212 0 0 1 90.16 37.6z"
            data-original="#6cbae5" class=""></path>
        <path fill="#319ecb"
            d="M368.036 96.263a174.894 174.894 0 0 0-94.463-39.394 179.1 179.1 0 0 0-35.142 0 176.01 176.01 0 0 0-118.167 287.168 8 8 0 0 0 5.787 2.9c.127.006.253.008.38.008a8 8 0 0 0 5.656-2.342L368.6 108.087a8 8 0 0 0-.561-11.824zM230.056 224h-49.112a235.387 235.387 0 0 1 9.92-60.224A507.977 507.977 0 0 0 248 167.928v38.128zm-16 16-30.149 30.148A237.173 237.173 0 0 1 180.95 240zm28.95-167.469c1.659-.134 3.323-.251 4.993-.333v79.73a492.129 492.129 0 0 1-51.872-3.608 233.2 233.2 0 0 1 46.88-75.789zM264 167.929q11.5-.183 23.021-.893L264 190.056zm40.476-18.349A489.589 489.589 0 0 1 264 151.926V72.2c1.672.082 3.338.2 5 .333a234.1 234.1 0 0 1 43.993 68.532zM218.7 76.37a248.394 248.394 0 0 0-38.813 69.673 489.955 489.955 0 0 1-51.261-10.866A159.106 159.106 0 0 1 218.7 76.37zm-99.6 72.779a505.249 505.249 0 0 0 55.761 12.307A251.43 251.43 0 0 0 164.938 224H96.222a159.08 159.08 0 0 1 22.878-74.851zm8.072 177.741A160.316 160.316 0 0 1 96.209 240h68.729a252.685 252.685 0 0 0 5.261 43.858zm197.995-198a249.34 249.34 0 0 0-31.87-52.527 158.8 158.8 0 0 1 57.6 26.8z"
            data-original="#428dc5" class=""></path>
        <path fill="#1483c2"
            d="M424 232a167.6 167.6 0 0 0-38.43-106.94L149.06 361.57a167.212 167.212 0 0 0 90.16 37.6q8.28.83 16.78.83t16.78-.83a167.77 167.77 0 0 0 7.22-.881V448l72.322-78.349A167.793 167.793 0 0 0 424 232z"
            data-original="#eaeae8" class=""></path>
        <g fill="#428dc5">
            <circle cx="256" cy="312" r="16" fill="#319ecb" data-original="#428dc5" class=""></circle>
            <circle cx="304" cy="312" r="16" fill="#319ecb" data-original="#428dc5" class=""></circle>
            <circle cx="352" cy="312" r="16" fill="#319ecb" data-original="#428dc5" class=""></circle>
        </g>
        <path fill="#1483c2"
            d="M448.521 96h6.013a8 8 0 0 0 0-16h-24a8 8 0 0 0-8 8v24a8 8 0 0 0 16 0v-2.638a208 208 0 0 1-20.218 269.008 8 8 0 0 0 11.368 11.26A224 224 0 0 0 448.521 96z"
            data-original="#41dfd0" class=""></path>
        <path fill="#ffaa00"
            d="M82.37 72.85a224.007 224.007 0 0 0-25.438 288.237l-6.76-1a8 8 0 1 0-2.344 15.828l27 4a8 8 0 0 0 9.11-6.922l3-24a8 8 0 0 0-15.876-1.984l-.676 5.4A208.021 208.021 0 0 1 93.63 84.217 8 8 0 1 0 82.37 72.85z"
            data-original="#37c9c3" class=""></path>
    </g>
</svg>