<svg width="32" height="32" viewBox="0 0 32 32" fill="none" xmlns="http://www.w3.org/2000/svg">
<path fill-rule="evenodd" clip-rule="evenodd" d="M30.5887 9.49243V22.3966C30.5887 27.1783 27.5962 30.5508 22.8145 30.5508H9.11869C4.33702 30.5508 1.36035 27.1783 1.36035 22.3966V9.49243C1.36035 4.71076 4.35285 1.33984 9.11869 1.33984H22.8145C27.5962 1.33984 30.5887 4.71076 30.5887 9.49243Z" stroke="#989898" stroke-width="2.375" stroke-linecap="round" stroke-linejoin="round"/>
<path d="M5.36816 22.9998L7.78908 20.4459C8.6615 19.5244 10.1261 19.5197 11.0064 20.4332L12.4077 21.863C13.3529 22.8272 14.9252 22.7576 15.7817 21.7142L19.311 17.4217C20.3243 16.1883 22.1832 16.1123 23.2931 17.2571L26.5801 20.6486" stroke="#989898" stroke-width="2.375" stroke-linecap="round" stroke-linejoin="round"/>
<path fill-rule="evenodd" clip-rule="evenodd" d="M13.333 11.4529C13.333 12.9856 12.0885 14.2301 10.5559 14.2301C9.02319 14.2301 7.78027 12.9856 7.78027 11.4529C7.78027 9.92028 9.02319 8.67578 10.5559 8.67578C12.0885 8.67578 13.333 9.92028 13.333 11.4529Z" stroke="#989898" stroke-width="2.375" stroke-linecap="round" stroke-linejoin="round"/>
</svg>
